HIERARCHY
ROOT Hips
{
	OFFSET 0.000000 0.000000 0.000000
	CHANNELS 6 Xposition Yposition Zposition Zrotation Yrotation Xrotation 
	JOINT LHipJoint
	{
		OFFSET 0.000000 0.000000 0.000000
		CHANNELS 3 Zrotation Yrotation Xrotation
		JOINT LeftUpLeg
		{
			OFFSET 1.363060 -1.794630 0.839290
			CHANNELS 3 Zrotation Yrotation Xrotation
			JOINT LeftLeg
			{
				OFFSET 2.448110 -6.726130 0.000000
				CHANNELS 3 Zrotation Yrotation Xrotation
				JOINT LeftFoot
				{
					OFFSET 2.562200 -7.039590 0.000000
					CHANNELS 3 Zrotation Yrotation Xrotation
					JOINT LeftToeBase
					{
						OFFSET 0.157640 -0.433110 2.322550
						CHANNELS 3 Zrotation Yrotation Xrotation
						End Site
						{
							OFFSET 0.000000 0.000000 0.000000
						}
					}
				}
			}
		}
	}
	JOINT RHipJoint
	{
		OFFSET 0.000000 0.000000 0.000000
		CHANNELS 3 Zrotation Yrotation Xrotation
		JOINT RightUpLeg
		{
			OFFSET -1.305520 -1.794630 0.839290
			CHANNELS 3 Zrotation Yrotation Xrotation
			JOINT RightLeg
			{
				OFFSET -2.542530 -6.985550 0.000000
				CHANNELS 3 Zrotation Yrotation Xrotation
				JOINT RightFoot
				{
					OFFSET -2.568260 -7.056230 0.000000
					CHANNELS 3 Zrotation Yrotation Xrotation
					JOINT RightToeBase
					{
						OFFSET -0.164730 -0.452590 2.363150
						CHANNELS 3 Zrotation Yrotation Xrotation
						End Site
						{
							OFFSET 0.000000 0.000000 0.000000
						}
					}
				}
			}
		}
	}
}
MOTION
Frames: 28
Frame Time: 0.008333
0.198887 17.167590 0.013547 -79.213627 83.888252 -64.101990 -10.784571 0.564946 5.133111 1.363652 -7.259700 -39.462759 0.795509 1.931931 55.860974 3.213207 17.192540 -13.468119 -1.418600 -0.000000 -1.593700 7.514009 -3.227870 4.564240 23.060515 2.665685 -3.988224 4.377584 2.395356 -1.722157 -0.415729 0.641768 -9.444776 -179.995300 -0.000000 -9.042500
0.415328 17.180043 0.032943 -74.089149 83.895368 -58.863305 -10.599799 0.513829 5.349078 1.333275 -7.715594 -40.321064 0.712460 1.802724 53.603452 3.290193 17.284813 -13.270960 -1.321300 -0.000000 -1.739300 7.656798 -3.252833 4.373639 22.732610 1.828107 -2.927744 4.350381 2.445483 -2.556543 -0.270609 1.083869 -8.553211 179.966700 0.000000 -8.512500
0.631937 17.190151 0.049295 -68.680604 83.832115 -53.374269 -10.455815 0.470347 5.538446 1.315714 -8.018059 -41.036425 0.629041 1.665195 51.116229 3.347520 17.297041 -12.867619 -1.151200 -0.000000 -2.112500 7.748108 -3.287201 4.178926 22.404323 1.056461 -1.886907 4.325919 2.469845 -3.230113 -0.136399 1.494187 -7.661637 179.939900 0.000000 -7.636000
0.849016 17.197832 0.062848 -63.435226 83.714643 -48.076855 -10.351445 0.426989 5.701340 1.288997 -8.171732 -41.620210 0.544819 1.515773 48.414600 3.380596 17.213458 -12.270762 -0.913399 0.000001 -2.722499 7.794800 -3.337182 3.983064 22.071270 0.344222 -0.879550 4.303826 2.466376 -3.745330 -0.009896 1.888556 -6.760878 179.924100 -0.000000 -6.326300
1.066643 17.203230 0.074091 -58.643262 83.568498 -43.262839 -10.278270 0.382868 5.836016 1.220589 -8.182673 -42.075496 0.456054 1.352624 45.511925 3.385472 17.020342 -11.509844 -0.621301 -0.000000 -3.510301 7.813552 -3.406553 3.783391 21.719811 -0.338334 0.086457 4.282885 2.431939 -4.104545 0.115226 2.298893 -5.823627 179.920500 0.000000 -4.397600
1.285277 17.206283 0.083206 -54.536554 83.408150 -39.148040 -10.228208 0.338671 5.944938 1.097931 -8.045579 -42.438272 0.358561 1.175672 42.434627 3.357222 16.694548 -10.618213 -0.291600 0.000000 -4.492900 7.815562 -3.496284 3.591834 21.361466 -0.972712 0.994843 4.262803 2.368875 -4.324515 0.238291 2.719356 -4.832711 179.931000 0.000001 -1.843300
1.505198 17.207246 0.090746 -51.132401 83.252718 -35.746812 -10.191763 0.301874 6.029821 0.893115 -7.759483 -42.724987 0.243447 0.986645 39.202801 3.291113 16.213947 -9.645390 0.051200 0.000000 -5.617200 7.813042 -3.605004 3.408067 20.994748 -1.568287 1.795407 4.242708 2.269615 -4.316562 0.358384 3.163592 -3.825663 -0.041000 -0.000000 -1.311300
1.726698 17.206433 0.097264 -48.347558 83.118539 -32.972863 -10.162130 0.279743 6.091893 0.577474 -7.326917 -42.949020 0.099482 0.787650 35.839328 3.181682 15.552601 -8.644648 0.379400 0.000000 -6.856900 7.816045 -3.729085 3.235618 20.611336 -2.135994 2.509808 4.220077 2.141886 -4.146855 0.476437 3.633546 -2.752813 0.008500 0.000000 -5.128000
1.950066 17.204257 0.103199 -46.075138 83.017320 -30.716307 -10.135393 0.275749 6.130469 0.127492 -6.754286 -43.118162 -0.085386 0.579734 32.371532 3.022796 14.680565 -7.670645 0.664400 0.000000 -8.198300 7.831207 -3.862291 3.082806 20.201341 -2.684565 3.255817 4.192515 2.014020 -4.081327 0.596895 4.119160 -1.494611 0.083300 -0.000000 -9.332900
2.175461 17.201181 0.108913 -44.173308 82.955860 -28.841681 -10.107822 0.291975 6.147190 -0.475423 -6.057843 -43.227436 -0.321750 0.362190 28.832417 2.809123 13.570877 -6.772385 0.880200 0.000000 -9.648500 7.859857 -4.001892 2.945511 19.759754 -3.224548 4.010719 4.158374 1.882033 -4.059555 0.716520 4.614236 -0.099166 0.185900 -0.000000 -13.785200
2.403057 17.197620 0.114690 -42.491683 82.935680 -27.211274 -10.075574 0.327567 6.145643 -1.238160 -5.266106 -43.261103 -0.615530 0.132707 25.263802 2.538066 12.206349 -5.988897 1.008000 -0.000000 -11.239200 7.900258 -4.146959 2.809803 19.283763 -3.766968 4.637849 4.114492 1.717835 -3.757913 0.820749 5.114211 1.247012 0.317300 -0.000000 -18.427600
2.632917 17.193968 0.120596 -40.897082 82.956936 -25.699014 -10.035427 0.375010 6.126295 -2.148627 -4.422265 -43.200433 -0.964870 -0.111253 21.719076 2.212328 10.588490 -5.346183 1.039800 -0.000000 -13.026600 7.954440 -4.292817 2.675725 18.758160 -4.323995 5.235068 4.057741 1.540748 -3.368001 0.912361 5.601614 2.628410 0.476100 0.000001 -23.199900
2.865033 17.190485 0.126548 -39.297881 83.013793 -24.221748 -9.984850 0.423987 6.092419 -3.169149 -3.579195 -43.026596 -1.357217 -0.371063 18.263908 1.841849 8.743692 -4.858723 0.980500 0.000000 -15.074000 8.020242 -4.434863 2.537737 18.179036 -4.896400 5.813545 3.986681 1.353667 -2.879180 0.987776 6.065370 3.983818 0.656700 0.000000 -27.659201
3.099395 17.187230 0.132492 -37.584112 83.099020 -22.673192 -9.921442 0.464601 6.050335 -4.244571 -2.804546 -42.723639 -1.770055 -0.645210 14.967677 1.445801 6.735204 -4.531564 0.848199 0.000000 -17.417600 8.097332 -4.570963 2.390925 17.537925 -5.482321 6.376948 3.898393 1.155111 -2.286569 1.045984 6.489360 5.334491 0.855000 0.000000 -32.163700
3.335988 17.184143 0.138226 -35.714464 83.202652 -21.009563 -9.845919 0.487679 6.007767 -5.301429 -2.163409 -42.287062 -2.174255 -0.927942 11.902940 1.049085 4.652571 -4.366470 0.670300 0.000000 -20.027600 8.182379 -4.697545 2.233288 16.839501 -6.062754 6.925565 3.792135 0.946255 -1.579074 1.085748 6.862133 6.655060 1.063700 -0.000000 -36.563700
3.574791 17.180994 0.143687 -33.667341 83.314499 -19.200938 -9.761354 0.488280 5.973013 -6.265829 -1.713634 -41.723903 -2.540672 -1.209339 9.136995 0.678397 2.605420 -4.363000 0.478000 -0.000000 -22.778799 8.272054 -4.812660 2.065951 16.093409 -6.609679 7.453326 3.666945 0.726768 -0.752102 1.107098 7.172376 7.964571 1.278101 -0.000000 -41.067601
3.815802 17.177450 0.148854 -31.439582 83.427082 -17.231571 -9.672765 0.466610 5.952908 -7.079587 -1.496658 -41.054396 -2.846684 -1.476369 6.729567 0.356569 0.707283 -4.514713 0.300400 0.000000 -25.468600 8.362753 -4.914961 1.893455 15.314563 -7.086699 7.950632 3.522209 0.496983 0.192100 1.110571 7.414712 9.292496 1.496000 -0.000000 -45.850599
4.059069 17.173069 0.153805 -29.061483 83.536069 -15.117821 -9.586492 0.427458 5.951046 -7.708268 -1.528549 -40.311399 -3.080043 -1.714344 4.735194 0.098015 -0.944199 -4.803212 0.157900 0.000001 -27.889600 8.450896 -5.004111 1.722415 14.523104 -7.459072 8.404226 3.358555 0.257905 1.255899 1.097592 7.599574 10.654790 1.718700 -0.000000 -50.876000
4.304505 17.167371 0.158671 -26.564871 83.642236 -12.880534 -9.508402 0.379130 5.967061 -8.148192 -1.801066 -39.535940 -3.239538 -1.908670 3.202274 -0.092115 -2.277571 -5.191567 0.060000 0.000000 -29.899100 8.534729 -5.081144 1.559325 13.737130 -7.705949 8.796961 3.177121 0.010354 2.445992 1.070564 7.756247 12.068674 1.954500 0.000000 -56.080501
4.552049 17.159860 0.163643 -23.958525 83.752053 -10.520996 -9.442792 0.331454 5.997544 -8.424573 -2.287239 -38.772236 -3.332812 -2.046852 2.169791 -0.216394 -3.252785 -5.625502 0.004400 -0.000001 -31.446500 8.614815 -5.147538 1.409440 12.966962 -7.823357 9.110938 2.979901 -0.244095 3.778213 1.033042 7.937028 13.527152 2.219300 -0.000000 -61.007100
4.801592 17.150024 0.168988 -21.193782 83.875871 -7.986444 -9.391667 0.294034 6.037166 -8.585544 -2.947926 -38.062019 -3.372546 -2.119840 1.663910 -0.282178 -3.858518 -6.039952 -0.019200 0.000000 -32.551500 8.695400 -5.206727 1.275560 12.209497 -7.833903 9.325070 2.767220 -0.504643 5.261807 0.987391 8.199295 15.067173 2.541200 0.000000 -65.720000
5.052655 17.137334 0.175168 -18.083728 84.029667 -5.098323 -9.354938 0.273955 6.077465 -8.701482 -3.738953 -37.426275 -3.373163 -2.122831 1.689664 -0.299308 -4.107866 -6.363957 -0.023700 -0.000000 -33.261700 8.785255 -5.261762 1.151401 11.432654 -7.805871 9.421835 2.538513 -0.770046 6.913624 0.935336 8.623227 16.715662 2.962400 0.000000 -70.264500
5.305006 17.121388 0.182171 -14.590808 84.221225 -1.819605 -9.332643 0.274064 6.108389 -8.836423 -4.585644 -36.904695 -3.348830 -2.054327 2.251992 -0.281896 -4.061051 -6.537417 -0.019900 0.000000 -33.632900 8.888756 -5.315341 1.040284 10.635694 -7.771351 9.383316 2.297237 -1.035067 8.758434 0.876319 9.250644 18.428472 3.507901 0.000000 -73.824500
5.557958 17.101820 0.190491 -10.416642 84.464084 2.131455 -9.321873 0.293671 6.115464 -9.074477 -5.415922 -36.496576 -3.312348 -1.917870 3.323931 -0.243901 -3.791468 -6.507844 -0.013299 0.000000 -33.688500 9.017747 -5.370867 0.932775 9.774469 -7.820682 9.200925 2.043291 -1.295592 10.802023 0.805775 10.115575 20.225917 4.213300 0.000001 -76.622900
5.811023 17.078464 0.200120 -5.488851 84.758722 6.823191 -9.318111 0.329383 6.085167 -9.468301 -6.137561 -36.217290 -3.272409 -1.720572 4.873104 -0.200905 -3.402230 -6.252222 -0.004200 -0.000000 -33.420300 9.179732 -5.431034 0.832118 8.854991 -7.984945 8.868855 1.781109 -1.544198 13.039051 0.715834 11.166563 22.087545 5.071400 0.000001 -78.513601
6.063417 17.051377 0.211334 0.358309 85.103280 12.411391 -9.310245 0.377584 6.007320 -10.049192 -6.687709 -36.044585 -3.231915 -1.475440 6.824341 -0.163614 -2.974263 -5.773694 0.009000 0.000000 -32.775200 9.388349 -5.495582 0.734029 7.871730 -8.308846 8.390536 1.515783 -1.774602 15.463020 0.599268 12.318716 23.981156 6.049900 0.000000 -79.501500
6.314449 17.020941 0.224211 7.142181 85.479773 18.912283 -9.279992 0.439545 5.882062 -10.802112 -7.038026 -35.949388 -3.187631 -1.199538 9.072043 -0.136416 -2.559244 -5.114731 0.027799 -0.000000 -31.686600 9.657842 -5.558457 0.636784 6.843142 -8.802027 7.771147 1.252635 -1.981079 18.062471 0.451331 13.420800 25.862497 7.066400 0.000000 -79.566400
6.563546 16.987873 0.238791 14.748810 85.850706 26.217764 -9.206450 0.524324 5.720504 -11.681253 -7.198390 -35.898196 -3.134246 -0.911021 11.488615 -0.117133 -2.176191 -4.355395 0.052401 -0.000000 -30.125500 9.997594 -5.604993 0.537400 5.794581 -9.450421 7.017574 0.993157 -2.158951 20.823791 0.271328 14.276746 27.686842 7.993500 0.000001 -78.923899
